STARTFONT 2.1
COMMENT  
COMMENT  Copyright 1994 by OMRON Corporation
COMMENT  
COMMENT  Permission to use, copy, modify, and distribute this software and 
COMMENT  its documentation for any purpose and without fee is hereby granted, 
COMMENT  provided that the above copyright notices appear in all copies and 
COMMENT  that both those copyright notices and this permission notice appear 
COMMENT  in supporting documentation, and that the name of OMRON Corporation 
COMMENT  not be used in advertising or publicity pertaining to distribution 
COMMENT  of the software without specific, written prior permission.  OMRON 
COMMENT  Corporation make no representations about the suitability of this 
COMMENT  software for any purpose.  It is provided "as is" without express or 
COMMENT  implied warranty. 
COMMENT  
COMMENT  OMRON CORPORATION DISCLAIM ALL WARRANTIES WITH REGARD TO THIS 
COMMENT  SOFTWARE, INCLUDING ALL IMPLIED WARRANTIES OF MERCHANTABILITY AND 
COMMENT  FITNESS, IN NO EVENT SHALL SUN MICROSYSTEMS BE LIABLE FOR ANY 
COMMENT  SPECIAL, INDIRECT OR CONSEQUENTIAL DAMAGES OR ANY DAMAGES WHATSOEVER 
COMMENT  RESULTING FROM LOSS OF USE, DATA OR PROFITS, WHETHER IN AN ACTION OF 
COMMENT  CONTRACT, NEGLIGENCE OR OTHER TORTIOUS ACTION, ARISING OUT OF OR IN 
COMMENT  CONNECTION WITH THE USE OR PERFORMANCE OF THIS SOFTWARE. 
COMMENT  
COMMENT 12x26 SiSheng font, cWnn internal use only
COMMENT
FONT -Omron-Fixed-Medium-R-Normal--26-180-100-100-C-120-OMRON_UDC_ZH-0
SIZE 18 100 100 
FONTBOUNDINGBOX 12 26 0 2
STARTPROPERTIES 19
FONTNAME_REGISTRY ""
FOUNDRY "Omron"
FAMILY_NAME "Fixed"
WEIGHT_NAME "Medium"
SLANT "R"
SETWIDTH_NAME "Normal"
ADD_STYLE_NAME ""
PIXEL_SIZE 26
POINT_SIZE 180
RESOLUTION_X 100
RESOLUTION_Y 100
SPACING "C"
AVERAGE_WIDTH 120
CHARSET_REGISTRY "OMRON_UDC_ZH"
CHARSET_ENCODING "0"
DEFAULT_CHAR 32 
FONT_ASCENT 24
FONT_DESCENT 2
COPYRIGHT "Copyright 1994 by OMRON Corporation"
ENDPROPERTIES
CHARS 74
STARTCHAR 0020
ENCODING 32
SWIDTH 480 0
DWIDTH 12 0
BBX 12 26 0 -2
BITMAP
0000
0000
0000
0000
0000
0000
0000
0000
0000
0000
0000
0000
0000
0000
0000
0000
0000
0000
0000
0000
0000
0000
0000
0000
0000
0000
ENDCHAR
STARTCHAR 0021
ENCODING 33
SWIDTH 480 0
DWIDTH 12 0
BBX 12 26 0 -2
BITMAP
0000
0000
0000
0000
0000
0000
3FC0
3FC0
0000
0000
0000
0E00
3300
2180
7180
2180
0F80
3180
2180
6180
6180
61A0
33A0
1CC0
0000
0000
ENDCHAR
STARTCHAR 0022
ENCODING 34
SWIDTH 480 0
DWIDTH 12 0
BBX 12 26 0 -2
BITMAP
0000
0000
0000
0000
0000
00C0
03C0
0F00
3C00
3000
0000
0E00
3300
2180
7180
2180
0F80
3180
2180
6180
6180
61A0
33A0
1CC0
0000
0000
ENDCHAR
STARTCHAR 0023
ENCODING 35
SWIDTH 480 0
DWIDTH 12 0
BBX 12 26 0 -2
BITMAP
0000
0000
0000
0000
0000
6060
30C0
1980
0F00
0600
0000
0E00
3300
2180
7180
2180
0F80
3180
2180
6180
6180
61A0
33A0
1CC0
0000
0000
ENDCHAR
STARTCHAR 0024
ENCODING 36
SWIDTH 480 0
DWIDTH 12 0
BBX 12 26 0 -2
BITMAP
0000
0000
0000
0000
0000
3000
3C00
0F00
03C0
00C0
0000
0E00
3300
2180
7180
2180
0F80
3180
2180
6180
6180
61A0
33A0
1CC0
0000
0000
ENDCHAR
STARTCHAR 0025
ENCODING 37
SWIDTH 480 0
DWIDTH 12 0
BBX 12 26 0 -2
BITMAP
0000
0000
0000
0000
0000
0000
3FC0
3FC0
0000
0000
0000
0600
1980
1080
30C0
30C0
30C0
3FC0
3000
3000
3040
1040
1880
0700
0000
0000
ENDCHAR
STARTCHAR 0026
ENCODING 38
SWIDTH 480 0
DWIDTH 12 0
BBX 12 26 0 -2
BITMAP
0000
0000
0000
0000
0000
00C0
03C0
0F00
3C00
3000
0000
0600
1980
1080
30C0
30C0
30C0
3FC0
3000
3000
3040
1040
1880
0700
0000
0000
ENDCHAR
STARTCHAR 0027
ENCODING 39
SWIDTH 480 0
DWIDTH 12 0
BBX 12 26 0 -2
BITMAP
0000
0000
0000
0000
0000
6060
30C0
1980
0F00
0600
0000
0600
1980
1080
30C0
30C0
30C0
3FC0
3000
3000
3040
1040
1880
0700
0000
0000
ENDCHAR
STARTCHAR 0028
ENCODING 40
SWIDTH 480 0
DWIDTH 12 0
BBX 12 26 0 -2
BITMAP
0000
0000
0000
0000
0000
3000
3C00
0F00
03C0
00C0
0000
0600
1980
1080
30C0
30C0
30C0
3FC0
3000
3000
3040
1040
1880
0700
0000
0000
ENDCHAR
STARTCHAR 0029
ENCODING 41
SWIDTH 480 0
DWIDTH 12 0
BBX 12 26 0 -2
BITMAP
0000
0000
0000
0000
0000
0000
3FC0
3FC0
0000
0000
0000
1E00
0600
0600
0600
0600
0600
0600
0600
0600
0600
0600
0600
1F80
0000
0000
ENDCHAR
STARTCHAR 002a
ENCODING 42
SWIDTH 480 0
DWIDTH 12 0
BBX 12 26 0 -2
BITMAP
0000
0000
0000
0000
0000
00C0
03C0
0F00
3C00
3000
0000
1E00
0600
0600
0600
0600
0600
0600
0600
0600
0600
0600
0600
1F80
0000
0000
ENDCHAR
STARTCHAR 002b
ENCODING 43
SWIDTH 480 0
DWIDTH 12 0
BBX 12 26 0 -2
BITMAP
0000
0000
0000
0000
0000
6060
30C0
1980
0F00
0600
0000
1E00
0600
0600
0600
0600
0600
0600
0600
0600
0600
0600
0600
1F80
0000
0000
ENDCHAR
STARTCHAR 002c
ENCODING 44
SWIDTH 480 0
DWIDTH 12 0
BBX 12 26 0 -2
BITMAP
0000
0000
0000
0000
0000
3000
3C00
0F00
03C0
00C0
0000
1E00
0600
0600
0600
0600
0600
0600
0600
0600
0600
0600
0600
1F80
0000
0000
ENDCHAR
STARTCHAR 002d
ENCODING 45
SWIDTH 480 0
DWIDTH 12 0
BBX 12 26 0 -2
BITMAP
0000
0000
0000
0000
0000
0000
3FC0
3FC0
0000
0000
0000
0600
1980
1080
30C0
30C0
30C0
30C0
30C0
30C0
30C0
1080
1980
0600
0000
0000
ENDCHAR
STARTCHAR 002e
ENCODING 46
SWIDTH 480 0
DWIDTH 12 0
BBX 12 26 0 -2
BITMAP
0000
0000
0000
0000
0000
00C0
03C0
0F00
3C00
3000
0000
0600
1980
1080
30C0
30C0
30C0
30C0
30C0
30C0
30C0
1080
1980
0600
0000
0000
ENDCHAR
STARTCHAR 002f
ENCODING 47
SWIDTH 480 0
DWIDTH 12 0
BBX 12 26 0 -2
BITMAP
0000
0000
0000
0000
0000
6060
30C0
1980
0F00
0600
0000
0600
1980
1080
30C0
30C0
30C0
30C0
30C0
30C0
30C0
1080
1980
0600
0000
0000
ENDCHAR
STARTCHAR 0030
ENCODING 48
SWIDTH 480 0
DWIDTH 12 0
BBX 12 26 0 -2
BITMAP
0000
0000
0000
0000
0000
3000
3C00
0F00
03C0
00C0
0000
0600
1980
1080
30C0
30C0
30C0
30C0
30C0
30C0
30C0
1080
1980
0600
0000
0000
ENDCHAR
STARTCHAR 0031
ENCODING 49
SWIDTH 480 0
DWIDTH 12 0
BBX 12 26 0 -2
BITMAP
0000
0000
0000
0000
0000
0000
3FC0
3FC0
0000
0000
0000
F3C0
30C0
30C0
30C0
30C0
30C0
30C0
30C0
30C0
30C0
10C0
19C0
06F0
0000
0000
ENDCHAR
STARTCHAR 0032
ENCODING 50
SWIDTH 480 0
DWIDTH 12 0
BBX 12 26 0 -2
BITMAP
0000
0000
0000
0000
0000
00C0
03C0
0F00
3C00
3000
0000
F3C0
30C0
30C0
30C0
30C0
30C0
30C0
30C0
30C0
30C0
10C0
19C0
06F0
0000
0000
ENDCHAR
STARTCHAR 0033
ENCODING 51
SWIDTH 480 0
DWIDTH 12 0
BBX 12 26 0 -2
BITMAP
0000
0000
0000
0000
0000
6060
30C0
1980
0F00
0600
0000
F3C0
30C0
30C0
30C0
30C0
30C0
30C0
30C0
30C0
30C0
10C0
19C0
06F0
0000
0000
ENDCHAR
STARTCHAR 0034
ENCODING 52
SWIDTH 480 0
DWIDTH 12 0
BBX 12 26 0 -2
BITMAP
0000
0000
0000
0000
0000
3000
3C00
0F00
03C0
00C0
0000
F3C0
30C0
30C0
30C0
30C0
30C0
30C0
30C0
30C0
30C0
10C0
19C0
06F0
0000
0000
ENDCHAR
STARTCHAR 0035
ENCODING 53
SWIDTH 480 0
DWIDTH 12 0
BBX 12 26 0 -2
BITMAP
0000
0000
0000
0000
0000
0000
3FC0
3FC0
0000
0000
0000
1980
1980
0000
0000
30C0
30C0
30C0
30C0
30C0
30C0
10C0
19C0
06F0
0000
0000
ENDCHAR
STARTCHAR 0036
ENCODING 54
SWIDTH 480 0
DWIDTH 12 0
BBX 12 26 0 -2
BITMAP
0000
0000
0000
0000
0000
00C0
03C0
0F00
3C00
3000
0000
1980
1980
0000
0000
30C0
30C0
30C0
30C0
30C0
30C0
10C0
19C0
06F0
0000
0000
ENDCHAR
STARTCHAR 0037
ENCODING 55
SWIDTH 480 0
DWIDTH 12 0
BBX 12 26 0 -2
BITMAP
0000
0000
0000
0000
0000
6060
30C0
1980
0F00
0600
0000
1980
1980
0000
0000
30C0
30C0
30C0
30C0
30C0
30C0
10C0
19C0
06F0
0000
0000
ENDCHAR
STARTCHAR 0038
ENCODING 56
SWIDTH 480 0
DWIDTH 12 0
BBX 12 26 0 -2
BITMAP
0000
0000
0000
0000
0000
3000
3C00
0F00
03C0
00C0
0000
1980
1980
0000
0000
30C0
30C0
30C0
30C0
30C0
30C0
10C0
19C0
06F0
0000
0000
ENDCHAR
STARTCHAR 0039
ENCODING 57
SWIDTH 480 0
DWIDTH 12 0
BBX 12 26 0 -2
BITMAP
0000
0000
0000
0000
0000
0000
0000
0000
0000
0000
0000
1980
1980
0000
0000
30C0
30C0
30C0
30C0
30C0
30C0
10C0
19C0
06F0
0000
0000
ENDCHAR
STARTCHAR 003a
ENCODING 58
SWIDTH 480 0
DWIDTH 12 0
BBX 12 26 0 -2
BITMAP
0000
0000
0000
0000
0000
0600
0F00
1980
30C0
6060
0000
0600
1980
1080
30C0
30C0
30C0
3FC0
3000
3000
3040
1040
1880
0700
0000
0000
ENDCHAR
STARTCHAR 003b
ENCODING 59
SWIDTH 480 0
DWIDTH 12 0
BBX 12 26 0 -2
BITMAP
0000
0000
0000
0000
0000
0000
0000
0000
0000
0000
0000
0000
0000
0000
0000
0000
0000
0000
0000
0000
0000
0000
0000
0000
0000
0000
ENDCHAR
STARTCHAR 003c
ENCODING 60
SWIDTH 480 0
DWIDTH 12 0
BBX 12 26 0 -2
BITMAP
0000
0000
0000
0000
0000
00C0
03C0
0F00
3C00
3000
0000
ECC0
7760
6660
6660
6660
6660
6660
6660
6660
6660
6660
6660
FFF0
0000
0000
ENDCHAR
STARTCHAR 003d
ENCODING 61
SWIDTH 480 0
DWIDTH 12 0
BBX 12 26 0 -2
BITMAP
0000
0000
0000
0000
0000
00C0
03C0
0F00
3C00
3000
0000
F600
3980
3080
30C0
30C0
30C0
30C0
30C0
30C0
30C0
30C0
30C0
79E0
0000
0000
ENDCHAR
STARTCHAR 003e
ENCODING 62
SWIDTH 480 0
DWIDTH 12 0
BBX 12 26 0 -2
BITMAP
0000
0000
0000
0000
0000
6060
30C0
1980
0F00
0600
0000
F600
3980
3080
30C0
30C0
30C0
30C0
30C0
30C0
30C0
30C0
30C0
79E0
0000
0000
ENDCHAR
STARTCHAR 003f
ENCODING 63
SWIDTH 480 0
DWIDTH 12 0
BBX 12 26 0 -2
BITMAP
0000
0000
0000
0000
0000
3000
3C00
0F00
03C0
00C0
0000
F600
3980
3080
30C0
30C0
30C0
30C0
30C0
30C0
30C0
30C0
30C0
79E0
0000
0000
ENDCHAR
STARTCHAR 0040
ENCODING 64
SWIDTH 480 0
DWIDTH 12 0
BBX 12 26 0 -2
BITMAP
0000
0000
0000
0000
0000
0000
0000
0000
0000
0000
0000
0000
0000
0000
0000
0000
0000
0000
0000
0000
0000
0000
0000
0000
0000
0000
ENDCHAR
STARTCHAR 0041
ENCODING 65
SWIDTH 480 0
DWIDTH 12 0
BBX 12 26 0 -2
BITMAP
0000
0000
0000
0000
0000
0000
FE00
FE00
0000
0000
0000
0000
0000
0000
0000
0000
0000
0000
0000
0000
0000
0000
0000
0000
0000
0000
ENDCHAR
STARTCHAR 0042
ENCODING 66
SWIDTH 480 0
DWIDTH 12 0
BBX 12 26 0 -2
BITMAP
0000
0000
0000
0000
0000
0600
1E00
7800
E000
8000
0000
0000
0000
0000
0000
0000
0000
0000
0000
0000
0000
0000
0000
0000
0000
0000
ENDCHAR
STARTCHAR 0043
ENCODING 67
SWIDTH 480 0
DWIDTH 12 0
BBX 12 26 0 -2
BITMAP
0000
0000
0000
0000
0000
0300
8600
CC00
7800
3000
0000
0000
0000
0000
0000
0000
0000
0000
0000
0000
0000
0000
0000
0000
0000
0000
ENDCHAR
STARTCHAR 0044
ENCODING 68
SWIDTH 480 0
DWIDTH 12 0
BBX 12 26 0 -2
BITMAP
0000
0000
0000
0000
0000
8000
E000
7800
1E00
0600
0000
0000
0000
0000
0000
0000
0000
0000
0000
0000
0000
0000
0000
0000
0000
0000
ENDCHAR
STARTCHAR 0045
ENCODING 69
SWIDTH 480 0
DWIDTH 12 0
BBX 12 26 0 -2
BITMAP
0000
0000
0000
0000
0000
0000
1000
3800
3000
3000
3040
7FF0
2060
0060
0060
0060
0060
00C0
00C0
00C0
00C0
03C0
0380
0100
0000
0000
ENDCHAR
STARTCHAR 0046
ENCODING 70
SWIDTH 480 0
DWIDTH 12 0
BBX 12 26 0 -2
BITMAP
0000
0000
0000
0000
0000
0000
0800
0C00
0C00
1800
1840
3FE0
10C0
00C0
00C0
04C0
03C0
0380
0180
03C0
03C0
06C0
0C40
3000
0000
0000
ENDCHAR
STARTCHAR 0047
ENCODING 71
SWIDTH 480 0
DWIDTH 12 0
BBX 12 26 0 -2
BITMAP
0000
0000
0000
0000
0000
0000
0000
0000
4040
7FF0
6060
6060
6060
6060
6060
6060
6060
6060
6060
6060
6060
4040
0000
0000
0000
0000
ENDCHAR
STARTCHAR 0048
ENCODING 72
SWIDTH 480 0
DWIDTH 12 0
BBX 12 26 0 -2
BITMAP
0000
0000
0000
0000
0000
0000
0000
0000
7FC0
3000
3000
3000
3000
3000
3000
3000
3000
3000
3000
3000
3FF0
1FF0
0000
0000
0000
0000
ENDCHAR
STARTCHAR 0049
ENCODING 73
SWIDTH 480 0
DWIDTH 12 0
BBX 12 26 0 -2
BITMAP
0000
0000
0000
0000
0000
0000
1000
1C00
1800
3000
3040
3FE0
14C0
0EC0
0CC0
0CC0
0CC0
18C0
18C0
30C0
30C0
33C0
4380
4100
0000
0000
ENDCHAR
STARTCHAR 004a
ENCODING 74
SWIDTH 480 0
DWIDTH 12 0
BBX 12 26 0 -2
BITMAP
0000
0000
0000
0000
0000
0000
0400
0700
0600
0600
0600
FFF0
0C00
0C00
0C00
0C00
1900
18C0
30C0
33E0
7C60
3060
0040
0000
0000
0000
ENDCHAR
STARTCHAR 004b
ENCODING 75
SWIDTH 480 0
DWIDTH 12 0
BBX 12 26 0 -2
BITMAP
0000
0000
0000
0000
0000
0000
0000
0100
1F80
F300
0300
0300
0300
0640
0FE0
04C0
00C0
00C0
00C0
00C0
00C0
03C0
0380
0100
0000
0000
ENDCHAR
STARTCHAR 004c
ENCODING 76
SWIDTH 480 0
DWIDTH 12 0
BBX 12 26 0 -2
BITMAP
0000
0000
0000
0000
0000
0000
0100
0380
1300
1B00
1100
3300
1340
13F0
3F60
1660
0660
0C60
0CC0
0CC0
18C0
33C0
2380
0100
0000
0000
ENDCHAR
STARTCHAR 004d
ENCODING 77
SWIDTH 480 0
DWIDTH 12 0
BBX 12 26 0 -2
BITMAP
0000
0000
0000
0000
0000
0000
0880
0CC0
0880
1980
1100
1100
1100
1100
2200
2200
1100
1100
1980
0CC0
0CC0
0CC0
0440
0000
0000
0000
ENDCHAR
STARTCHAR 004e
ENCODING 78
SWIDTH 480 0
DWIDTH 12 0
BBX 12 26 0 -2
BITMAP
0000
0000
0000
0000
0000
0000
0000
00C0
FFE0
1000
1800
1800
3000
3100
3FC0
1180
0180
0180
0180
0180
0300
0F00
0700
0200
0000
0000
ENDCHAR
STARTCHAR 004f
ENCODING 79
SWIDTH 480 0
DWIDTH 12 0
BBX 12 26 0 -2
BITMAP
0000
0000
0000
0000
0000
0000
0000
00F0
0F80
3C00
1800
1800
1800
1800
1800
1800
1800
1000
3000
3000
3000
6000
C000
8000
0000
0000
ENDCHAR
STARTCHAR 0050
ENCODING 80
SWIDTH 480 0
DWIDTH 12 0
BBX 12 26 0 -2
BITMAP
0000
0000
0000
0000
0000
0000
0000
0100
01C0
1180
1D80
1980
1980
1980
3180
3180
3380
3780
3D80
1180
0180
0180
0180
0100
0000
0000
ENDCHAR
STARTCHAR 0051
ENCODING 81
SWIDTH 480 0
DWIDTH 12 0
BBX 12 26 0 -2
BITMAP
0000
0000
0000
0000
0000
0000
0000
0100
0300
0300
0200
0400
0400
0400
0800
0800
0C00
0600
0300
0300
0180
0180
0080
0000
0000
0000
ENDCHAR
STARTCHAR 0052
ENCODING 82
SWIDTH 480 0
DWIDTH 12 0
BBX 12 26 0 -2
BITMAP
0000
0000
0000
0000
0000
0000
0000
0060
FFF0
0600
0600
0600
0600
0600
0600
0600
0600
0600
0600
0600
0600
0600
0600
0400
0000
0000
ENDCHAR
STARTCHAR 0053
ENCODING 83
SWIDTH 480 0
DWIDTH 12 0
BBX 12 26 0 -2
BITMAP
0000
0000
0000
0000
0000
0000
0C00
0700
0600
C6C0
7670
6660
6660
6660
6660
6660
FFE0
4640
0600
0600
0600
0600
FFF0
0000
0000
0000
ENDCHAR
STARTCHAR 0054
ENCODING 84
SWIDTH 480 0
DWIDTH 12 0
BBX 12 26 0 -2
BITMAP
0000
0000
0000
0000
0000
0000
0100
0380
0300
0600
0D00
0DC0
1B00
3300
4600
0E00
1E00
3600
4600
0600
0600
0600
0600
0400
0000
0000
ENDCHAR
STARTCHAR 0055
ENCODING 85
SWIDTH 480 0
DWIDTH 12 0
BBX 12 26 0 -2
BITMAP
0000
0000
0000
0000
0000
0000
0040
3FE0
00C0
00C0
00C0
10C0
3FC0
3000
3000
3000
3000
3000
3000
3000
2000
6000
C000
8000
0000
0000
ENDCHAR
STARTCHAR 0056
ENCODING 86
SWIDTH 480 0
DWIDTH 12 0
BBX 12 26 0 -2
BITMAP
0000
0000
0000
0000
0000
0000
0000
2080
3FC0
30C0
30C0
30C0
34C0
3CC0
36C0
34C0
30C0
30C0
30C0
30C0
3FC0
30C0
2080
0000
0000
0000
ENDCHAR
STARTCHAR 0057
ENCODING 87
SWIDTH 480 0
DWIDTH 12 0
BBX 12 26 0 -2
BITMAP
0000
0000
0000
0000
0000
0000
0080
7FC0
18C0
18C0
18C0
18C0
18C0
18C0
1F80
1B00
1900
1800
1800
1800
1800
1800
1800
1000
0000
0000
ENDCHAR
STARTCHAR 0058
ENCODING 88
SWIDTH 480 0
DWIDTH 12 0
BBX 12 26 0 -2
BITMAP
0000
0000
0000
0000
0000
0000
0400
0700
0600
0600
FFF0
0C00
0C00
0C40
1FF0
0860
0060
0060
00C0
00C0
00C0
00C0
0180
0100
0000
0000
ENDCHAR
STARTCHAR 0059
ENCODING 89
SWIDTH 480 0
DWIDTH 12 0
BBX 12 26 0 -2
BITMAP
0000
0000
0000
0000
0000
0000
0000
0400
0E00
0C00
0C00
0C00
0C00
1800
1800
3000
3100
30C0
60C0
C7E0
FC60
E060
0040
0000
0000
0000
ENDCHAR
STARTCHAR 005a
ENCODING 90
SWIDTH 480 0
DWIDTH 12 0
BBX 12 26 0 -2
BITMAP
0000
0000
0000
0000
0000
0000
0040
40E0
30C0
30C0
1C80
0D80
0700
0600
0600
0600
0600
0600
0600
0600
0600
0600
0600
0400
0000
0000
ENDCHAR
STARTCHAR 005b
ENCODING 91
SWIDTH 480 0
DWIDTH 12 0
BBX 12 26 0 -2
BITMAP
0000
0000
0000
0000
0000
0000
0000
00E0
7FF0
0600
0600
0600
0600
1E00
1000
2000
2000
2000
2000
2000
2000
10C0
1F00
0000
0000
0000
ENDCHAR
STARTCHAR 005c
ENCODING 92
SWIDTH 480 0
DWIDTH 12 0
BBX 12 26 0 -2
BITMAP
0000
0000
0000
0000
0000
0000
0C00
0700
0600
0600
0600
FFF0
0600
0600
0200
1E00
1000
2000
2000
2000
2000
10C0
1F80
0000
0000
0000
ENDCHAR
STARTCHAR 005d
ENCODING 93
SWIDTH 480 0
DWIDTH 12 0
BBX 12 26 0 -2
BITMAP
0000
0000
0000
0000
0000
0000
6300
31C0
3180
3180
3180
31F0
3F80
F300
3300
3300
3300
3600
3400
3000
3FE0
1FE0
0000
0000
0000
0000
ENDCHAR
STARTCHAR 005e
ENCODING 94
SWIDTH 480 0
DWIDTH 12 0
BBX 12 26 0 -2
BITMAP
0000
0000
0000
0000
0000
0000
0000
0000
07F0
FE00
1300
3300
3300
3320
33F0
7F30
2630
0630
0660
0C60
0C60
0CC0
18C0
30C0
0000
0000
ENDCHAR
STARTCHAR 005f
ENCODING 95
SWIDTH 480 0
DWIDTH 12 0
BBX 12 26 0 -2
BITMAP
0000
0000
0000
0000
0000
0000
0400
7E00
0C00
0C00
0C00
0C00
0C00
0C00
0C00
0600
0600
0600
0600
0300
0300
01E0
00C0
0000
0000
0000
ENDCHAR
STARTCHAR 0060
ENCODING 96
SWIDTH 480 0
DWIDTH 12 0
BBX 12 26 0 -2
BITMAP
0000
0000
0000
0000
0000
0000
0400
0E00
0C00
0C00
0C00
0900
19C0
3180
3300
7F00
2600
0C00
0C00
1880
3040
7FC0
30C0
0040
0000
0000
ENDCHAR
STARTCHAR 0061
ENCODING 97
SWIDTH 480 0
DWIDTH 12 0
BBX 12 26 0 -2
BITMAP
0000
0000
0000
0000
0000
0000
0040
3FE0
00C0
00C0
00C0
00C0
18C0
0CC0
03C0
0380
01C0
03C0
03E0
0660
0C20
1800
3000
C000
0000
0000
ENDCHAR
STARTCHAR 0062
ENCODING 98
SWIDTH 480 0
DWIDTH 12 0
BBX 12 26 0 -2
BITMAP
0000
0000
0000
0000
0000
0000
0080
7FC0
00C0
10C0
3980
3180
3340
3FF0
1060
0060
0060
00C0
00C0
00C0
00C0
00C0
0180
0100
0000
0000
ENDCHAR
STARTCHAR 0063
ENCODING 99
SWIDTH 480 0
DWIDTH 12 0
BBX 12 26 0 -2
BITMAP
0000
0000
0000
0000
0000
0000
6000
3000
3000
3000
3000
6000
6000
6000
6040
FFF0
4060
0060
0060
00C0
00C0
00C0
00C0
00C0
0000
0000
ENDCHAR
STARTCHAR 0064
ENCODING 100
SWIDTH 480 0
DWIDTH 12 0
BBX 12 26 0 -2
BITMAP
0000
0000
0000
0000
0000
0000
0400
0E00
0C00
0C00
0FF0
FF00
0F00
0F00
0F00
0F00
1B00
1B00
1B00
3300
3380
31F0
60F0
C000
0000
0000
ENDCHAR
STARTCHAR 0065
ENCODING 101
SWIDTH 480 0
DWIDTH 12 0
BBX 12 26 0 -2
BITMAP
0000
0000
0000
0000
0000
0000
0000
0800
0C00
0C00
0C00
0C00
1800
1800
1800
3000
3000
3000
2000
6000
40E0
FFF0
E000
0000
0000
0000
ENDCHAR
STARTCHAR 0066
ENCODING 102
SWIDTH 480 0
DWIDTH 12 0
BBX 12 26 0 -2
BITMAP
0000
0000
0000
0000
0000
0000
3300
1B80
1B00
1B00
1B00
1B00
1B00
1B00
1B00
1B00
3310
3310
3310
3330
63F0
41F0
8000
0000
0000
0000
ENDCHAR
STARTCHAR 0067
ENCODING 103
SWIDTH 480 0
DWIDTH 12 0
BBX 12 26 0 -2
BITMAP
0000
0000
0000
0000
0000
0000
0C00
0700
0600
0600
0600
0600
0600
0600
0600
0600
0600
0600
0600
0600
0600
0600
0600
0400
0000
0000
ENDCHAR
STARTCHAR 0068
ENCODING 104
SWIDTH 480 0
DWIDTH 12 0
BBX 12 26 0 -2
BITMAP
0000
0000
0000
0000
0000
0000
0000
0080
00C0
00C0
00C0
0180
3180
1B00
0F00
0700
0300
0780
0DC0
0CC0
1840
3000
C000
0000
0000
0000
ENDCHAR
STARTCHAR 0069
ENCODING 105
SWIDTH 480 0
DWIDTH 12 0
BBX 12 26 0 -2
BITMAP
0000
0000
0000
0000
0000
0000
0000
0000
0040
2070
3060
3060
3060
3060
3060
3060
7060
6060
67E0
FC60
4040
0000
0000
0000
0000
0000
ENDCHAR
ENDFONT
